<svg xmlns="http://www.w3.org/2000/svg" width="215" height="66" fill="none"><g clip-path="url(#a)"><ellipse cx="60.443" cy="26.667" fill="#FDC040" opacity=".8" rx="13.519" ry="19.377" transform="rotate(5.913 60.443 26.667)"/><ellipse cx="41.055" cy="32.706" fill="#FDC040" rx="13.519" ry="19.377" transform="rotate(-18.85 41.055 32.706)"/><path fill="#81B13D" d="M27 39h48.07c.385.167 1.267.8 1.727 2C77.373 42.5 79 64.5 51.5 60c-21.638 0-26.687-.667-26.495-1C29 58 29.5 54 30 51s-3-12-3-12Z"/><path fill="#253D4E" d="M63.117 18.432c-.631 0-1.142.512-1.142 1.143v.182a1.142 1.142 0 1 0 2.285 0v-.182c0-.631-.512-1.143-1.143-1.143ZM66.085 23.53c-.631 0-1.143.511-1.143 1.142v.183a1.143 1.143 0 1 0 2.285 0v-.183c0-.63-.511-1.142-1.142-1.142ZM41.067 22.457l-.085-.162a1.142 1.142 0 1 0-2.025 1.057l.084.162a1.142 1.142 0 1 0 2.026-1.057ZM46.057 25.602l-.085-.162a1.142 1.142 0 1 0-2.025 1.057l.084.162a1.142 1.142 0 1 0 2.026-1.057ZM38.947 48.334l-3.398-3.399a1.142 1.142 0 1 0-1.616 1.616l3.398 3.398a1.139 1.139 0 0 0 1.616 0 1.142 1.142 0 0 0 0-1.615ZM49.045 46.205a1.142 1.142 0 0 0-1.593-.269l-11.86 8.445a1.143 1.143 0 0 0 1.324 1.861l11.861-8.444c.514-.366.634-1.08.268-1.593ZM53.239 47.928a1.142 1.142 0 0 0-1.594-.268L47.092 50.9a1.143 1.143 0 0 0 1.326 1.862l4.552-3.242c.514-.365.634-1.079.269-1.593Z"/><path fill="#253D4E" d="M77.784 42.744a1.143 1.143 0 0 0-1.595-.259l-.38.275.003-.294c0-1.09-.424-2.116-1.196-2.89a4.063 4.063 0 0 0-2.888-1.195h-.338c1.254-2.423 1.89-5.34 1.89-8.708 0-6.605-2.475-13.824-6.307-18.392a1.142 1.142 0 1 0-1.75 1.468c3.506 4.181 5.772 10.824 5.772 16.924 0 3.515-.755 6.441-2.246 8.708h-2.262l1.005-.715a1.142 1.142 0 1 0-1.325-1.862l-3.62 2.577h-6.796c.685-3.47-.029-7.345-2.098-11.31-1.482-2.837-3.586-5.583-6.007-7.909 2.493-6.306 6.62-10.34 10.64-10.34 1.214 0 2.438.353 3.636 1.05a1.143 1.143 0 0 0 1.149-1.976c-1.552-.902-3.162-1.36-4.785-1.36-4.864 0-9.541 4.18-12.45 11.016a27.978 27.978 0 0 0-3.062-2.202c-4.922-3.04-9.583-3.696-13.124-1.848-3.265 1.707-5.357 5.491-5.89 10.656a1.142 1.142 0 1 0 2.273.235c.451-4.377 2.112-7.526 4.675-8.865 6.24-3.258 16.547 4.23 20.919 12.6 1.944 3.725 2.542 7.17 1.785 10.253H34.739l-1.918-1.917a1.143 1.143 0 0 0-1.616 1.616l.302.301h-3.137c-1.273-2.892-2.11-6.214-2.369-9.436a1.142 1.142 0 0 0-2.278.183 32.03 32.03 0 0 0 1.586 7.683 16.947 16.947 0 0 0-11.89-4.028c-.408.022-.773.26-.957.625a16.928 16.928 0 0 0-1.49 10.88c.007.11.03.216.065.315.224 1.038.547 2.057.966 3.043A16.866 16.866 0 0 0 .165 55.581c-.211.35-.22.786-.023 1.144a16.925 16.925 0 0 0 8.152 7.371c.091.053.186.094.284.12a16.81 16.81 0 0 0 6.343 1.248c.812 0 1.618-.062 2.41-.177.076-.005.15-.014.222-.033a16.977 16.977 0 0 0 8.945-4.393c.056.008.113.014.17.014h5.128a1.142 1.142 0 1 0 0-2.285h-3.28c.3-.407.583-.827.848-1.264l.022-.04c.007-.013.015-.024.021-.037a16.937 16.937 0 0 0-.767-16.583h5.15l3.112 3.111a1.14 1.14 0 0 0 1.616 0 1.143 1.143 0 0 0 0-1.616l-1.495-1.495h3.101l4.242 4.242a1.14 1.14 0 0 0 1.616 0 1.143 1.143 0 0 0 0-1.616l-2.626-2.626h15.982l-2.495 1.776a1.142 1.142 0 1 0 1.326 1.862l5.109-3.638h8.451a1.792 1.792 0 0 1 1.799 1.8c0 .687-.044 1.365-.128 2.03l-8.39 6.05a1.143 1.143 0 0 0 1.337 1.854l6.237-4.497a16.212 16.212 0 0 1-6.739 8.294L53.103 43.455a1.143 1.143 0 0 0-1.616 1.616l12.23 12.23a16.006 16.006 0 0 1-5.337 1.258l-4.982-4.98a1.142 1.142 0 1 0-1.615 1.615l3.395 3.395H43.993l-1.834-1.833a1.143 1.143 0 0 0-1.615 1.616l.217.217h-4.205a1.142 1.142 0 1 0 0 2.286h6.489l2.577 2.577a1.14 1.14 0 0 0 1.616 0 1.143 1.143 0 0 0 0-1.616l-.961-.961H57.4c2.881 0 5.609-.666 8.04-1.85l.959.96a1.14 1.14 0 0 0 1.616 0 1.143 1.143 0 0 0 0-1.617l-.517-.517c4.12-2.712 7.09-7.031 8.012-12.06l2.015-1.452a1.143 1.143 0 0 0 .258-1.595ZM26.56 41.65c.128.196.25.396.367.597l-2.892 5.739-3.302-5.054 2.31-5.005a14.525 14.525 0 0 1 3.517 3.723Zm-3.776 8.598-6.3.317a14.45 14.45 0 0 1-2.898-5.229l5.925-.096 3.273 5.008ZM21.09 36.706l-1.833 3.97-3.644-5.575c1.927.171 3.787.724 5.477 1.605Zm-7.39-.356 4.332 6.63-4.954.08a14.663 14.663 0 0 1 .621-6.71Zm-.591 13.457a16.746 16.746 0 0 0 1.976 2.623c.045.059.096.113.151.162a16.903 16.903 0 0 0 3.447 2.8l-6.011-.123-2.834-4.74a14.513 14.513 0 0 1 3.27-.722ZM7.727 51.45l2.25 3.764-6.661-.137a14.596 14.596 0 0 1 4.41-3.627Zm.733 10.21a14.662 14.662 0 0 1-5.19-4.298l7.918.163L8.46 61.66Zm8.119 1.423c-.644.074-1.296.107-1.954.094a14.51 14.51 0 0 1-3.998-.65l3.262-4.947 5.982.123-3.292 5.38Zm3.115-.714 2.822-4.612 3.469.072.214.017a14.676 14.676 0 0 1-6.505 4.523Zm6.424-6.823a14.677 14.677 0 0 1-7.288-2.809l5.401-.272 2.015 3.084-.128-.003Zm2.048-1.238-2.686-4.11 2.666-5.29a14.68 14.68 0 0 1 .02 9.4Z"/><path fill="#253D4E" d="M66.571 44.703a1.143 1.143 0 0 0-1.595-.259l-4.026 2.903a1.142 1.142 0 1 0 1.336 1.854l4.027-2.903a1.143 1.143 0 0 0 .258-1.595Z"/></g><path fill="#253D4E" d="m95.033 61-.01-5.058-2.508 4.186h-.632l-2.507-4.12V61h-1.351v-7.63h1.166l3.03 5.058 2.976-5.058h1.166l.011 7.63h-1.34Zm9.441-1.766h-3.815L99.906 61h-1.46l3.433-7.63h1.396l3.444 7.63h-1.482l-.763-1.766Zm-.469-1.112-1.439-3.335-1.428 3.335h2.867ZM113.772 61l-1.559-2.234c-.066.007-.164.01-.294.01h-1.723V61h-1.417v-7.63h3.14c.661 0 1.235.109 1.722.327.494.218.872.53 1.133.937.262.407.393.89.393 1.45 0 .574-.142 1.068-.425 1.482-.277.415-.676.723-1.199.927L115.298 61h-1.526Zm-.033-4.916c0-.487-.16-.861-.48-1.123-.32-.261-.788-.392-1.406-.392h-1.657v3.041h1.657c.618 0 1.086-.13 1.406-.392.32-.27.48-.647.48-1.134Zm5.544-1.515h-2.528V53.37h6.474v1.199H120.7V61h-1.417v-6.431Zm15.925 6.55-.96-.926c-.712.61-1.566.916-2.561.916a3.701 3.701 0 0 1-1.428-.262c-.422-.174-.752-.414-.992-.719a1.691 1.691 0 0 1-.36-1.057c0-.473.138-.887.415-1.243.276-.363.726-.72 1.351-1.068-.305-.305-.523-.589-.654-.85a1.87 1.87 0 0 1-.196-.829c0-.537.2-.97.599-1.297.407-.334.945-.501 1.614-.501.617 0 1.111.152 1.482.458.371.297.556.705.556 1.22 0 .393-.124.742-.371 1.047-.239.305-.635.614-1.188.926l1.646 1.57c.182-.356.324-.785.425-1.286l1.101.36c-.145.675-.374 1.256-.687 1.743l.96.916-.752.883Zm-3.172-6.866c-.298 0-.534.076-.709.229a.715.715 0 0 0-.261.578c0 .174.047.341.141.5.095.154.276.364.545.633.436-.24.738-.447.905-.621.174-.182.262-.378.262-.589a.653.653 0 0 0-.24-.534c-.153-.13-.367-.196-.643-.196Zm-.251 5.744c.632 0 1.184-.192 1.657-.578l-2.017-1.929c-.436.24-.745.472-.926.698a1.152 1.152 0 0 0-.262.741c0 .32.142.578.425.774.284.196.658.294 1.123.294Zm15.799-2.9h1.34v3.042c-.392.312-.85.552-1.373.72a5.27 5.27 0 0 1-1.613.25c-.778 0-1.479-.167-2.104-.501a3.802 3.802 0 0 1-1.471-1.406c-.357-.596-.535-1.268-.535-2.017 0-.748.178-1.42.535-2.017a3.725 3.725 0 0 1 1.471-1.395c.632-.341 1.341-.512 2.126-.512.639 0 1.22.105 1.744.316.523.21.962.52 1.318.927l-.893.872a2.869 2.869 0 0 0-2.104-.872c-.538 0-1.017.112-1.439.338a2.515 2.515 0 0 0-.981.948 2.767 2.767 0 0 0-.349 1.395c0 .509.117.966.349 1.373.24.407.567.727.981.96a2.91 2.91 0 0 0 1.428.348c.596 0 1.119-.13 1.57-.392v-2.376ZM156.875 61l-1.558-2.234c-.066.007-.164.01-.295.01H153.3V61h-1.417v-7.63h3.139c.662 0 1.236.109 1.723.327.494.218.872.53 1.133.937.262.407.393.89.393 1.45 0 .574-.142 1.068-.425 1.482-.277.415-.676.723-1.199.927L158.401 61h-1.526Zm-.032-4.916c0-.487-.16-.861-.48-1.123-.32-.261-.788-.392-1.406-.392H153.3v3.041h1.657c.618 0 1.086-.13 1.406-.392.32-.27.48-.647.48-1.134Zm7.667 5.025c-.777 0-1.478-.167-2.103-.501a3.805 3.805 0 0 1-1.472-1.406 3.892 3.892 0 0 1-.534-2.017c0-.741.178-1.41.534-2.006a3.705 3.705 0 0 1 1.472-1.406c.625-.341 1.326-.512 2.103-.512.778 0 1.479.17 2.104.512.625.335 1.115.8 1.472 1.395.356.596.534 1.269.534 2.017s-.178 1.42-.534 2.017a3.812 3.812 0 0 1-1.472 1.406c-.625.334-1.326.501-2.104.501Zm0-1.243c.509 0 .967-.112 1.374-.337.407-.233.726-.553.959-.96.232-.414.349-.875.349-1.384 0-.509-.117-.967-.349-1.373a2.438 2.438 0 0 0-.959-.96 2.72 2.72 0 0 0-1.374-.348 2.72 2.72 0 0 0-1.373.348 2.431 2.431 0 0 0-.959.96 2.714 2.714 0 0 0-.349 1.373c0 .509.116.97.349 1.384.232.407.552.727.959.96.407.225.865.337 1.373.337Zm10.233 1.243c-.77 0-1.468-.167-2.093-.501a3.828 3.828 0 0 1-1.46-1.406c-.349-.596-.523-1.268-.523-2.017 0-.748.178-1.42.534-2.017a3.749 3.749 0 0 1 1.46-1.395c.625-.341 1.323-.512 2.093-.512.625 0 1.195.109 1.711.327a3.49 3.49 0 0 1 1.308.948l-.915.861a2.67 2.67 0 0 0-2.038-.893c-.524 0-.992.116-1.407.348a2.44 2.44 0 0 0-.97.949 2.745 2.745 0 0 0-.348 1.384c0 .516.116.977.348 1.384.233.407.556.727.97.96.415.225.883.337 1.407.337.806 0 1.486-.301 2.038-.904l.915.872a3.47 3.47 0 0 1-1.318.948 4.357 4.357 0 0 1-1.712.327Zm11.201-1.297V61h-5.723v-7.63h5.57v1.188h-4.153v1.984h3.684v1.166h-3.684v2.104h4.306ZM193.605 61l-1.558-2.234c-.066.007-.164.01-.295.01h-1.722V61h-1.417v-7.63h3.139c.662 0 1.236.109 1.723.327.494.218.872.53 1.133.937.262.407.393.89.393 1.45 0 .574-.142 1.068-.425 1.482-.277.415-.676.723-1.199.927L195.131 61h-1.526Zm-.032-4.916c0-.487-.16-.861-.48-1.123-.32-.261-.788-.392-1.406-.392h-1.657v3.041h1.657c.618 0 1.086-.13 1.406-.392.32-.27.48-.647.48-1.134Zm7.288 2.224V61h-1.417v-2.67l-2.997-4.96h1.515l2.234 3.717 2.257-3.717h1.395l-2.987 4.938Z"/><path fill="#3BB77E" d="M117.633 7.15c.888 0 1.61.296 2.165.888.555.592.832 1.332.832 2.22v32.356c0 .963-.333 1.777-.999 2.443-.629.628-1.424.943-2.386.943-.481 0-.981-.074-1.499-.222-.481-.185-.851-.425-1.11-.721L92.825 17.361l1.442-.888v26.418c0 .888-.295 1.628-.888 2.22-.555.592-1.294.888-2.22.888-.888 0-1.609-.296-2.164-.888-.555-.592-.833-1.332-.833-2.22V10.535c0-.962.315-1.757.944-2.386.666-.666 1.48-.999 2.442-.999.518 0 1.055.111 1.61.333.555.185.962.481 1.22.888l21.146 26.973-.944.666V10.258c0-.888.278-1.628.833-2.22.555-.592 1.295-.888 2.22-.888Zm24.473 39.405c-3.145 0-5.883-.648-8.214-1.943-2.294-1.331-4.07-3.126-5.328-5.383-1.221-2.257-1.832-4.81-1.832-7.659 0-3.33.666-6.16 1.998-8.492 1.369-2.367 3.145-4.18 5.328-5.438 2.183-1.259 4.496-1.888 6.938-1.888 1.887 0 3.663.389 5.328 1.166a14.32 14.32 0 0 1 4.495 3.219 14.762 14.762 0 0 1 3.053 4.662 13.968 13.968 0 0 1 1.165 5.661c-.037.888-.388 1.61-1.054 2.164a3.53 3.53 0 0 1-2.331.833h-21.201l-1.665-5.55h20.368l-1.221 1.11v-1.498a4.97 4.97 0 0 0-1.165-2.886c-.666-.851-1.517-1.517-2.553-1.998a6.892 6.892 0 0 0-3.219-.777c-1.11 0-2.146.148-3.108.444a5.956 5.956 0 0 0-2.498 1.498c-.703.703-1.258 1.646-1.665 2.83-.407 1.184-.61 2.683-.61 4.496 0 1.998.407 3.7 1.221 5.106.851 1.369 1.924 2.424 3.219 3.163a8.912 8.912 0 0 0 4.218 1.055c1.369 0 2.46-.111 3.274-.333.814-.222 1.462-.481 1.943-.777.518-.333.98-.61 1.387-.833.666-.332 1.295-.499 1.887-.499.814 0 1.48.277 1.998.832.555.555.833 1.203.833 1.943 0 .999-.518 1.905-1.554 2.72-.962.813-2.313 1.535-4.052 2.164a16.59 16.59 0 0 1-5.383.888Zm16.743-5.161c-.37-.518-.537-1.184-.5-1.998.037-.815.518-1.517 1.443-2.11a2.873 2.873 0 0 1 1.887-.444c.666.038 1.314.37 1.943 1 1.073 1.072 2.201 1.905 3.385 2.497 1.184.592 2.664.888 4.44.888a18.852 18.852 0 0 0 1.832-.222 3.655 3.655 0 0 0 1.72-.888c.518-.481.777-1.203.777-2.164 0-.815-.277-1.462-.832-1.943-.555-.481-1.295-.888-2.22-1.221a32.221 32.221 0 0 0-2.997-.944 95.04 95.04 0 0 1-3.552-1.11 15.7 15.7 0 0 1-3.275-1.553 7.865 7.865 0 0 1-2.442-2.609c-.629-1.073-.943-2.424-.943-4.052 0-1.85.518-3.422 1.554-4.717 1.036-1.295 2.368-2.294 3.996-2.997a13.28 13.28 0 0 1 5.217-1.054c1.147 0 2.349.147 3.607.444a12.86 12.86 0 0 1 3.608 1.332 8.611 8.611 0 0 1 2.886 2.386c.407.555.647 1.221.721 1.998.074.777-.277 1.48-1.054 2.109-.555.444-1.203.648-1.943.61-.74-.074-1.35-.333-1.831-.777-.629-.814-1.48-1.461-2.553-1.942-1.036-.481-2.239-.721-3.608-.721-.555 0-1.165.073-1.831.221a3.241 3.241 0 0 0-1.665.833c-.481.407-.722 1.073-.722 1.998 0 .851.278 1.535.833 2.053.555.482 1.295.889 2.22 1.221.962.296 1.979.592 3.052.889 1.11.296 2.239.647 3.386 1.054 1.147.407 2.201.944 3.163 1.61a7.558 7.558 0 0 1 2.331 2.608c.592 1.036.888 2.368.888 3.996 0 1.887-.555 3.497-1.665 4.829-1.11 1.332-2.497 2.349-4.162 3.052a13.636 13.636 0 0 1-5.106.999c-2.183 0-4.366-.37-6.549-1.11-2.183-.777-3.996-2.127-5.439-4.051Zm28.806-24.531h13.153c.888 0 1.628.296 2.22.887.592.593.888 1.332.888 2.22 0 .852-.296 1.573-.888 2.165-.592.555-1.332.832-2.22.832h-13.153c-.888 0-1.628-.295-2.22-.887-.592-.592-.888-1.332-.888-2.22 0-.851.296-1.555.888-2.11.592-.591 1.332-.887 2.22-.887Zm5.938-6.938c.962 0 1.739.333 2.331.999.629.629.944 1.425.944 2.386v24.698c0 .518.092.944.277 1.276.222.334.5.574.833.722.37.148.758.222 1.165.222a3.26 3.26 0 0 0 1.221-.222 2.82 2.82 0 0 1 1.277-.278c.518 0 .98.241 1.387.722.444.481.666 1.147.666 1.998 0 1.036-.573 1.887-1.72 2.553a6.889 6.889 0 0 1-3.608.999c-.777 0-1.646-.056-2.608-.166a7.925 7.925 0 0 1-2.664-.944c-.814-.518-1.499-1.295-2.054-2.331-.555-1.036-.832-2.46-.832-4.273V13.31c0-.962.314-1.757.943-2.386.666-.666 1.48-.999 2.442-.999Z"/><defs><clipPath id="a"><path fill="#fff" d="M0 6h78v60H0z"/></clipPath></defs></svg>